<?xml version="1.0" standalone="no"?>
<!DOCTYPE svg PUBLIC "-//W3C//DTD SVG 20010904//EN"
 "http://www.w3.org/TR/2001/REC-SVG-20010904/DTD/svg10.dtd">
<svg version="1.0" xmlns="http://www.w3.org/2000/svg"
 width="976.000000pt" height="976.000000pt" viewBox="0 0 976.000000 976.000000"
 preserveAspectRatio="xMidYMid meet">
<metadata>
Created by potrace 1.11, written by Peter Selinger 2001-2013
</metadata>
<g transform="translate(0.000000,976.000000) scale(0.100000,-0.100000)"
fill="#000000" stroke="none">
<path d="M4376 9003 c-2 -2 -29 -5 -62 -8 -126 -10 -190 -16 -218 -21 -16 -3
-50 -7 -75 -9 -25 -2 -46 -5 -46 -5 0 -2 -30 -7 -77 -14 -24 -3 -77 -13 -118
-21 -41 -8 -86 -17 -100 -19 -14 -3 -36 -8 -50 -11 -21 -6 -92 -22 -125 -28
-5 -2 -16 -6 -22 -10 -7 -5 -13 -6 -13 -3 0 3 -11 1 -24 -4 -20 -7 -29 -4 -54
20 -47 44 -79 62 -145 80 l-62 17 -53 -30 c-48 -27 -63 -30 -177 -35 -88 -3
-125 -2 -125 6 0 13 79 38 137 44 12 1 20 5 18 8 -8 12 -353 1 -460 -15 -16
-2 -52 -7 -80 -10 -27 -4 -57 -8 -65 -10 -8 -2 -30 -7 -47 -10 -18 -3 -48 -7
-65 -10 -18 -3 -51 -11 -73 -16 -22 -6 -47 -12 -55 -14 -8 -2 -42 -10 -75 -19
-33 -10 -67 -19 -75 -21 -8 -2 -15 -4 -15 -5 0 -1 -7 -3 -15 -5 -23 -5 -141
-45 -175 -60 -16 -7 -41 -16 -55 -20 -14 -4 -52 -21 -84 -36 -33 -16 -65 -29
-73 -29 -7 0 -13 -4 -13 -10 0 -5 -6 -10 -14 -10 -36 0 -356 -200 -441 -275
-38 -34 -38 -36 -10 -24 17 7 34 16 40 21 14 12 35 9 35 -5 0 -7 -16 -30 -35
-52 -46 -50 -95 -116 -95 -129 -1 -6 -41 -42 -91 -80 -97 -75 -169 -138 -288
-255 l-76 -73 76 63 c41 35 93 79 115 98 21 18 82 66 134 105 52 39 97 74 98
79 2 4 7 7 12 7 5 0 35 17 67 38 71 47 158 95 207 116 35 14 36 14 26 -4 -8
-15 -5 -25 12 -45 13 -14 30 -27 38 -29 35 -7 50 -20 50 -42 0 -13 -4 -24 -10
-24 -5 0 -10 -5 -10 -10 0 -18 -99 -104 -133 -116 -31 -11 -32 -11 -37 16 l-5
29 -52 -25 c-31 -15 -66 -43 -90 -72 -21 -25 -82 -89 -136 -142 -54 -52 -94
-96 -88 -98 5 -2 39 11 75 27 36 17 68 31 71 31 13 0 3 -27 -18 -45 -57 -53
-124 -105 -135 -105 -7 0 -12 -3 -12 -8 0 -8 -73 -42 -90 -42 -13 0 -13 -6 2
-29 9 -15 7 -26 -12 -57 -41 -68 -104 -141 -133 -154 -25 -11 -31 -10 -53 11
-13 12 -26 21 -28 18 -3 -4 -31 -127 -40 -179 -3 -14 -5 -25 -6 -25 -1 0 -3
-11 -6 -25 -10 -59 -56 -158 -100 -215 l-36 -48 32 24 c78 58 113 80 117 75 3
-3 -16 -36 -42 -73 -26 -37 -41 -62 -34 -55 41 38 53 -13 16 -68 -27 -41 -61
-119 -76 -175 -16 -62 -22 -102 -35 -230 -13 -119 -17 -154 -20 -171 -10 -52
-28 -102 -47 -133 -12 -21 -15 -32 -7 -28 98 39 118 45 121 39 10 -15 -2 -192
-14 -214 -7 -12 -25 -39 -40 -58 -16 -21 -30 -53 -34 -80 l-6 -45 22 22 c14
14 22 33 21 52 0 17 3 29 8 26 10 -6 55 -147 64 -195 2 -14 16 -65 31 -115 14
-49 27 -94 28 -100 7 -30 56 -145 109 -255 140 -287 332 -517 595 -712 50 -37
96 -68 102 -68 5 0 11 -4 13 -8 4 -11 125 -79 232 -131 151 -73 357 -143 516
-177 14 -3 40 -9 58 -14 22 -6 40 -4 60 5 15 7 54 16 87 19 33 4 81 9 106 12
32 3 51 1 60 -8 8 -8 36 -28 62 -45 34 -22 44 -34 35 -39 -15 -10 -342 -16
-364 -7 -9 3 -12 13 -9 24 5 16 3 17 -27 8 -74 -21 -254 -29 -328 -15 -155 31
-507 191 -677 308 -79 54 -31 -4 98 -118 9 -8 20 -14 24 -14 5 0 18 -9 29 -19
46 -42 241 -132 381 -175 62 -19 207 -53 260 -61 22 -4 51 -8 65 -11 157 -27
547 -26 688 2 18 4 38 2 44 -3 20 -15 257 -99 306 -108 9 -2 17 -4 17 -5 0 -2
20 -7 59 -15 16 -3 33 -8 37 -10 4 -3 24 -7 45 -11 22 -3 55 -9 74 -14 35 -9
85 -17 150 -26 19 -2 53 -7 75 -10 216 -33 656 -38 865 -10 14 2 50 7 80 11
52 6 105 16 160 29 14 4 41 9 60 12 86 14 320 92 320 106 0 9 -47 2 -179 -28
-63 -15 -121 -28 -130 -29 -9 -2 -16 -4 -16 -5 0 -1 -9 -3 -19 -5 -11 -2 -49
-11 -85 -19 -37 -9 -78 -18 -93 -21 -16 -3 -40 -8 -55 -11 -48 -10 -95 -14
-203 -19 -84 -3 -96 -2 -60 6 25 5 59 11 75 13 17 3 30 5 30 6 0 1 11 4 25 6
40 7 154 35 170 41 8 4 17 7 20 7 45 10 100 31 100 37 0 5 -12 4 -27 -2 -15
-6 -45 -13 -66 -16 -44 -6 -72 -11 -72 -13 0 -1 -20 -3 -45 -5 -25 -3 -63 -7
-85 -11 -55 -8 -491 -15 -511 -7 -11 4 -12 9 -5 16 17 17 13 29 -8 22 -61 -19
-160 -28 -296 -28 -133 1 -182 9 -365 60 l-54 16 49 19 c53 20 69 26 126 51
35 15 42 14 125 -9 49 -13 100 -26 114 -29 14 -3 35 -7 48 -10 85 -19 162 -34
217 -41 21 -3 42 -6 45 -7 3 -1 15 4 27 11 12 7 55 14 95 17 40 3 91 7 113 9
22 3 74 7 115 11 41 3 86 8 100 10 14 2 43 6 65 9 22 3 63 8 90 11 28 3 61 7
75 10 14 3 41 8 60 11 19 2 58 9 85 15 28 6 64 13 80 16 17 2 55 11 85 19 30
9 64 17 75 19 32 5 224 70 295 100 94 39 175 82 259 137 41 26 76 48 78 48 12
0 149 118 227 195 86 86 236 267 236 287 0 4 5 8 10 8 7 0 9 -24 6 -67 -3 -38
-8 -101 -11 -142 -16 -221 -37 -288 -153 -491 -14 -25 -25 -46 -24 -48 1 -1
-10 -26 -25 -55 -15 -28 -27 -54 -28 -57 -2 -11 -174 -341 -206 -395 -10 -16
-30 -52 -45 -80 -14 -27 -30 -52 -33 -55 -4 -3 -22 -30 -40 -60 -19 -30 -36
-57 -40 -60 -3 -3 -18 -23 -33 -45 -56 -81 -206 -223 -241 -229 -35 -5 -65
-40 -107 -123 -44 -89 -45 -90 -127 -139 -45 -27 -83 -53 -83 -57 0 -4 7 -10
16 -14 20 -7 -30 -53 -136 -123 -41 -28 -80 -54 -86 -59 -6 -5 -35 -16 -64
-25 -50 -15 -54 -15 -123 9 -49 17 -83 24 -108 20 -47 -7 -148 -48 -200 -80
-21 -14 -41 -25 -44 -25 -3 0 -11 -5 -18 -10 -7 -6 -34 -26 -61 -45 -49 -34
-49 -34 -22 -41 14 -3 48 -3 74 1 26 4 49 7 52 7 3 0 13 4 22 9 14 7 16 6 12
-6 -4 -8 -9 -15 -13 -15 -3 0 -17 -10 -31 -23 -49 -43 -246 -150 -320 -172
-41 -12 -49 -23 -40 -54 4 -16 5 -33 1 -40 -10 -16 -115 -51 -173 -58 -27 -3
-51 -10 -54 -14 -3 -5 1 -6 9 -3 8 3 19 -2 26 -10 10 -12 6 -19 -22 -40 -37
-28 -196 -104 -217 -103 -3 0 -23 -9 -45 -20 -22 -11 -58 -26 -80 -33 -22 -7
-56 -20 -75 -28 -19 -9 -38 -17 -42 -18 -5 -1 -10 -3 -13 -4 -3 -1 -8 -3 -12
-5 -5 -1 -21 -7 -36 -13 -42 -17 -47 -15 -47 19 l0 32 -34 -36 c-19 -20 -56
-48 -82 -62 -26 -14 -52 -29 -58 -33 -9 -7 -149 -64 -166 -68 -3 0 -18 -6 -33
-12 -27 -11 -60 -4 -77 17 -21 26 -78 39 -95 22 -6 -5 -45 -19 -87 -30 -111
-31 -213 -40 -291 -26 l-37 6 5 -55 5 -56 -28 5 c-15 3 -40 8 -57 11 -28 6
-60 7 -210 3 -60 -1 -138 6 -185 17 -14 3 -31 6 -37 6 -20 2 -16 6 39 38 47
26 49 29 22 26 -16 -2 -53 -11 -82 -19 -29 -9 -52 -14 -52 -12 0 2 -18 -2 -40
-10 -22 -8 -40 -12 -40 -8 0 3 -7 0 -15 -7 -9 -7 -18 -10 -21 -7 -3 3 -17 2
-29 -3 -25 -10 -134 -21 -200 -22 -102 -1 -263 38 -433 103 -137 53 -293 110
-312 115 -8 2 -26 6 -39 10 -17 5 -22 4 -17 -4 4 -7 12 -12 17 -12 5 0 26 -11
47 -23 20 -13 69 -41 107 -62 146 -79 160 -87 174 -99 8 -6 16 -10 18 -8 2 2
45 -17 96 -41 90 -44 221 -95 263 -103 11 -2 65 -15 120 -29 54 -15 108 -28
119 -31 37 -8 239 -43 285 -49 81 -10 104 -16 180 -49 64 -28 215 -88 230 -92
3 0 14 -4 25 -8 25 -10 101 -35 110 -36 3 -1 19 -6 37 -11 64 -20 134 -37 203
-50 39 -7 72 -14 75 -14 3 -1 23 -5 45 -10 22 -4 49 -9 60 -12 70 -14 125 -24
155 -27 19 -2 35 -4 35 -6 0 -1 16 -3 35 -5 19 -2 55 -6 80 -10 25 -3 70 -7
100 -10 30 -2 55 -5 55 -5 0 -3 67 -10 127 -12 38 -2 68 -6 68 -9 0 -6 723 -3
825 4 39 3 97 8 130 11 33 3 85 9 115 11 30 3 70 8 87 11 18 3 54 7 80 9 27 3
62 7 78 10 17 2 64 9 105 15 41 6 86 14 100 16 14 3 36 7 50 9 43 5 259 48
315 61 11 3 29 7 40 9 11 3 31 7 45 10 14 4 34 8 45 10 11 3 54 13 95 24 41
11 111 29 155 41 44 11 91 25 105 30 14 6 34 11 45 13 11 2 27 7 35 10 8 3 53
17 100 32 130 41 392 134 420 149 14 8 27 14 30 14 11 1 128 47 205 82 22 10
87 39 145 65 134 60 454 226 510 265 14 9 30 19 35 21 6 2 36 20 68 39 32 19
66 40 75 45 80 48 408 278 463 324 13 11 44 37 69 57 267 216 508 464 702 723
83 111 97 128 159 201 50 58 206 261 299 387 133 182 246 313 296 344 24 15
37 33 49 72 9 29 19 59 22 67 4 8 7 17 8 20 0 3 22 70 47 150 25 80 53 170 62
200 30 109 64 246 70 281 3 20 8 42 10 50 8 21 18 77 31 164 4 28 9 52 10 55
9 15 16 142 8 137 -15 -9 -53 22 -65 52 -16 41 -17 111 -2 181 8 36 17 81 20
100 8 47 12 65 14 65 1 0 3 14 5 30 2 17 7 40 10 52 3 12 8 51 11 85 3 35 8
66 10 70 2 3 -6 19 -20 34 -21 25 -22 31 -11 58 16 38 12 217 -5 261 -6 17
-10 30 -9 30 4 0 -23 109 -30 120 -3 6 -6 12 -6 15 -5 27 -118 350 -134 380
-4 8 -25 69 -46 135 -21 66 -40 122 -42 124 -2 3 -14 -6 -27 -18 -25 -24 -46
-21 -46 5 0 25 -123 254 -189 354 -55 81 -146 207 -201 274 -46 56 -175 208
-215 252 -16 18 -46 52 -67 76 -20 24 -54 61 -75 84 -21 22 -67 73 -103 114
-107 120 -114 127 -118 107 -4 -22 -13 -21 -59 4 -45 25 -177 120 -181 131 -2
5 -9 8 -16 8 -7 0 -21 8 -32 18 -31 28 -145 104 -149 100 -2 -2 14 -27 35 -56
22 -29 40 -55 40 -58 0 -2 9 -14 20 -26 11 -12 20 -25 20 -29 0 -9 -57 18 -65
31 -10 16 -123 68 -230 105 -60 21 -112 41 -115 44 -5 7 -58 31 -66 31 -3 0
15 -17 39 -37 24 -21 50 -46 56 -56 11 -17 10 -18 -11 -12 -53 15 -169 76
-248 130 -47 32 -87 61 -90 65 -7 9 -107 63 -145 77 -16 7 -63 22 -104 33 -70
21 -72 22 -54 39 10 9 27 23 38 29 15 8 16 12 5 12 -8 1 -22 3 -30 5 -24 5
-83 16 -110 20 -14 2 -36 7 -50 10 -14 3 -34 8 -45 9 -18 3 -73 13 -115 22 -8
1 -49 10 -90 19 -41 9 -84 18 -95 20 -11 1 -47 7 -80 14 -33 6 -78 13 -100 16
-22 3 -56 8 -75 11 -19 3 -59 8 -89 10 -30 2 -89 6 -130 9 -42 4 -99 8 -127 9
-67 4 -96 21 -204 116 -26 23 -96 58 -127 63 -10 2 -43 9 -74 16 -53 13 -58
12 -100 -11 -24 -14 -57 -28 -74 -32 -46 -12 -335 -17 -335 -6 0 11 57 28 119
37 119 15 79 22 -127 20 -123 -1 -225 -3 -226 -4z m776 -788 c6 -11 14 -22 17
-25 10 -8 31 -60 25 -60 -3 0 -27 18 -53 40 -26 22 -52 40 -58 40 -6 0 -15 6
-21 13 -9 10 -2 13 34 12 35 0 48 -5 56 -20z m233 0 c22 -3 51 -8 65 -10 14
-3 41 -8 60 -10 19 -3 55 -10 80 -16 25 -5 54 -11 65 -13 142 -28 492 -134
567 -173 15 -7 30 -13 33 -13 8 -1 37 -11 70 -25 17 -7 59 -25 93 -40 87 -36
294 -143 365 -188 31 -20 62 -37 67 -37 6 0 10 -3 10 -7 0 -5 18 -19 40 -33
22 -13 40 -28 40 -32 0 -4 5 -8 12 -8 6 0 21 -8 32 -17 17 -15 19 -15 8 -1 -9
11 -10 18 -2 23 11 7 183 -102 265 -169 94 -76 116 -101 207 -236 64 -94 122
-164 189 -230 64 -63 95 -100 90 -108 -8 -13 -41 -6 -41 9 0 5 -5 9 -11 9 -6
0 -35 20 -63 45 -66 56 -86 58 -55 8 30 -49 32 -51 114 -104 39 -25 102 -67
141 -92 86 -56 194 -172 201 -215 1 -8 8 -21 15 -30 16 -19 54 -112 64 -157 4
-16 9 -34 13 -40 11 -19 9 -35 -4 -35 -13 0 -43 32 -77 80 -17 25 -17 24 -15
-31 2 -54 3 -56 40 -74 58 -29 187 -159 202 -204 3 -12 10 -21 15 -21 18 0
190 -384 204 -455 1 -5 10 -37 20 -70 10 -33 19 -64 21 -70 1 -5 5 -17 8 -25
7 -19 36 -144 53 -227 11 -57 14 -75 20 -100 7 -34 12 -81 20 -197 6 -84 5
-89 -12 -81 -42 17 -74 23 -79 16 -2 -5 -7 -23 -9 -42 -3 -19 -7 -45 -10 -59
-11 -60 -21 -153 -31 -285 -7 -104 -14 -154 -26 -210 -6 -27 -13 -61 -15 -75
-3 -14 -19 -50 -36 -80 -17 -30 -37 -67 -45 -82 -8 -16 -19 -28 -24 -28 -5 0
-9 -5 -9 -10 0 -9 -58 -107 -118 -200 -9 -14 -15 -28 -14 -32 1 -5 -2 -8 -7
-8 -5 0 -14 -13 -21 -30 -7 -16 -16 -30 -21 -30 -5 0 -9 -5 -9 -10 0 -6 -36
-68 -81 -138 -44 -70 -86 -136 -92 -146 -7 -11 -22 -31 -34 -45 -13 -14 -23
-30 -23 -34 0 -5 -10 -22 -22 -37 -13 -15 -32 -40 -43 -56 -169 -239 -373
-418 -531 -468 -11 -3 -27 -19 -35 -34 -8 -15 -18 -32 -24 -38 -5 -6 -26 -38
-45 -71 -33 -58 -39 -63 -135 -109 -55 -27 -103 -49 -106 -49 -21 0 -18 -16 5
-26 l26 -12 -52 -35 c-111 -75 -234 -141 -315 -168 -68 -23 -96 -21 -205 14
-63 20 -118 17 -218 -12 -65 -18 -360 -163 -360 -177 0 -19 161 -13 215 7 28
11 15 -12 -17 -31 -18 -10 -35 -21 -38 -25 -16 -20 -277 -132 -408 -175 -28
-9 -49 -21 -46 -26 3 -6 8 -23 11 -39 3 -25 0 -31 -29 -43 -37 -16 -155 -44
-208 -51 -48 -6 -48 -6 -20 -17 l25 -10 -33 -30 c-18 -16 -41 -29 -51 -29 -10
0 -24 -7 -31 -15 -7 -8 -20 -15 -30 -15 -9 0 -20 -3 -24 -7 -4 -5 -11 -8 -14
-8 -4 -1 -51 -16 -104 -34 -54 -18 -100 -33 -102 -33 -3 0 -35 -10 -71 -23
-36 -13 -65 -21 -65 -18 0 3 -7 0 -15 -7 -8 -7 -15 -10 -15 -7 0 3 -29 -5 -65
-18 -36 -13 -65 -22 -65 -20 0 2 -20 -4 -45 -15 l-45 -19 3 34 c3 25 0 35 -9
35 -8 0 -14 -4 -14 -10 0 -12 -64 -53 -140 -90 -46 -23 -248 -97 -284 -105
-81 -17 -81 -17 -140 14 -58 31 -100 39 -110 22 -5 -8 -70 -27 -126 -37 -14
-3 -32 -7 -40 -9 -64 -18 -263 -26 -332 -13 l-37 7 4 -38 c2 -20 5 -42 6 -47
5 -27 -2 -36 -24 -30 -47 11 -134 20 -197 19 -36 -1 -108 -2 -160 -3 -52 -1
-113 1 -135 4 -58 8 -138 18 -152 19 -14 0 -18 17 -4 17 5 0 26 8 47 17 22 9
42 17 46 17 3 1 10 4 14 9 10 10 -14 9 -77 -4 -30 -6 -65 -12 -79 -14 -14 -1
-43 -7 -65 -13 -22 -6 -53 -13 -70 -16 -16 -3 -41 -8 -55 -10 -14 -3 -43 -9
-65 -13 -55 -10 -361 -9 -409 1 -21 4 -48 10 -60 12 -11 3 -32 7 -46 10 -36 7
-100 24 -100 27 0 1 75 3 168 4 160 1 278 7 370 18 23 3 63 7 90 10 26 3 58 8
72 10 14 3 47 7 74 11 27 3 57 9 66 14 10 5 20 7 22 5 4 -4 138 21 218 40 8 2
44 10 80 19 127 29 370 100 403 117 12 7 23 12 24 11 5 -3 237 80 288 103 17
7 73 32 125 55 144 63 441 217 520 270 8 6 30 18 48 27 17 9 32 20 32 25 0 4
5 8 11 8 11 0 125 75 147 97 7 7 17 13 21 13 5 0 24 12 44 28 19 15 46 35 59
44 96 70 131 98 276 222 101 85 243 225 339 332 94 104 109 122 181 214 37 47
70 87 74 88 5 2 8 9 8 16 0 7 8 21 18 32 10 10 49 68 87 128 129 201 210 321
217 324 5 2 8 10 8 18 0 8 4 14 10 14 5 0 9 3 8 8 -1 4 19 40 45 80 26 40 47
74 47 77 0 2 14 24 30 48 17 25 30 48 30 51 0 4 5 12 10 19 6 7 43 64 82 127
40 63 94 137 121 165 47 48 51 56 88 190 22 77 41 149 44 160 2 11 11 47 19
81 8 34 17 72 20 85 2 13 11 53 20 89 8 36 17 81 20 100 3 19 7 45 10 56 2 12
7 37 10 55 3 19 8 45 11 58 2 14 7 45 10 70 3 25 7 57 10 71 3 14 7 53 10 86
5 56 4 62 -14 67 -32 8 -49 63 -45 142 4 68 10 125 14 135 3 6 3 9 14 80 5 30
10 64 13 75 15 67 17 196 3 205 -6 4 -8 27 -5 56 12 96 6 196 -16 293 -6 25
-13 57 -15 71 -8 39 -61 229 -82 290 -3 8 -6 20 -7 25 -2 6 -17 59 -35 118
-17 59 -33 115 -35 125 -2 9 -4 17 -5 17 -1 0 -3 11 -6 25 -9 52 -14 57 -35
31 -11 -13 -21 -22 -23 -20 -1 2 -13 31 -25 64 -58 152 -150 340 -213 432 -15
23 -28 46 -28 52 0 6 -4 11 -10 11 -5 0 -10 4 -10 9 0 12 -61 105 -72 109 -4
2 -8 10 -8 18 0 8 -4 14 -9 14 -5 0 -13 9 -16 20 -3 11 -12 26 -19 32 -6 7
-27 36 -46 63 -36 53 -197 272 -215 292 -5 6 -28 37 -49 67 -33 47 -41 53 -51
40 -10 -14 -17 -11 -58 20 -25 19 -55 43 -65 53 -10 10 -42 40 -72 67 l-55 49
75 -7 c41 -3 93 -8 115 -11z m-2575 -35 c0 -30 -164 -156 -215 -164 -32 -6
-50 11 -34 30 6 8 5 13 -4 17 -23 9 -120 -39 -170 -84 -49 -45 -114 -102 -132
-116 -5 -5 -47 -37 -92 -73 -45 -35 -80 -67 -77 -71 5 -8 91 18 109 32 6 4 31
11 55 15 l45 6 -35 -31 c-83 -74 -202 -141 -314 -176 -17 -5 -18 -7 -3 -23 15
-17 15 -21 -1 -50 -17 -31 -88 -110 -133 -146 -58 -48 -97 -52 -125 -12 -15
21 -15 21 -27 1 -6 -11 -12 -24 -14 -30 -1 -5 -7 -28 -13 -50 -6 -22 -13 -48
-15 -59 -35 -149 -91 -260 -171 -341 -24 -24 -9 -18 50 20 30 19 58 35 62 35
4 0 18 10 31 22 42 40 26 -4 -26 -68 -43 -53 -47 -60 -26 -56 38 7 35 -27 -5
-79 -35 -45 -87 -140 -95 -176 -3 -10 -12 -45 -20 -78 -8 -33 -17 -80 -20
-105 -6 -64 -20 -168 -31 -233 -9 -53 -47 -142 -71 -164 -13 -13 -22 -23 -20
-23 2 0 40 11 83 25 43 14 82 25 87 25 14 0 6 -182 -9 -219 -8 -19 -30 -48
-48 -65 -33 -30 -56 -79 -56 -120 0 -19 1 -19 26 6 16 15 27 38 27 56 1 17 6
28 10 25 9 -6 47 -86 51 -107 1 -6 8 -29 15 -51 19 -60 20 -65 22 -73 4 -14
69 -197 78 -217 30 -68 118 -237 142 -272 16 -23 29 -46 29 -51 0 -6 3 -12 8
-14 4 -1 28 -32 54 -68 128 -179 331 -372 548 -522 l25 -17 -45 -2 c-119 -4
-273 3 -337 15 -11 3 -36 7 -54 10 -19 3 -61 13 -94 21 -65 17 -70 18 -100 29
-11 5 -38 15 -60 23 -61 22 -205 96 -205 105 0 4 -5 8 -10 8 -29 0 -207 157
-255 224 -30 42 -46 57 -55 51 -13 -8 -116 113 -149 175 -17 31 -41 95 -55
143 -25 86 -42 127 -52 127 -3 0 -3 -9 1 -19 19 -59 9 -85 -22 -60 -15 13 -68
121 -88 179 -1 3 -4 12 -8 20 -10 26 -74 219 -111 340 -20 64 -36 128 -36 143
0 31 22 80 50 110 23 24 44 108 35 137 -4 12 -20 44 -37 70 l-30 49 16 73 c9
40 18 91 22 112 10 68 45 168 84 245 38 74 54 75 39 4 -8 -38 6 -45 15 -9 3
13 16 46 28 73 11 26 22 54 24 60 1 7 16 35 33 63 17 28 31 53 31 56 0 4 54
90 90 144 6 8 51 75 100 148 50 72 90 137 90 142 0 6 3 10 8 10 4 0 12 10 17
22 6 12 19 23 30 24 11 2 25 11 33 21 7 10 22 28 32 41 11 12 20 25 20 28 0 3
44 49 98 103 99 99 264 231 289 231 7 0 13 5 13 11 0 5 5 7 10 4 6 -3 10 -2
10 4 0 15 122 88 262 156 114 56 143 68 171 73 4 1 20 8 36 17 52 26 322 111
386 121 17 3 57 10 90 18 59 12 85 11 85 -4z m1327 -207 c43 -20 111 -57 151
-80 41 -24 78 -43 83 -43 5 0 9 -4 9 -10 0 -5 6 -10 13 -10 8 0 22 -9 32 -20
10 -11 22 -20 28 -20 5 0 22 -10 37 -22 15 -13 43 -34 61 -48 19 -14 56 -45
83 -70 27 -25 47 -37 43 -27 -4 10 -2 17 5 17 14 0 108 -71 108 -82 0 -4 5 -8
11 -8 27 0 224 -217 224 -248 0 -4 5 -14 10 -22 5 -8 24 -41 40 -73 39 -73
107 -167 157 -215 36 -35 50 -72 28 -72 -5 0 -36 25 -67 55 -32 30 -61 55 -65
55 -18 0 31 -84 65 -110 11 -8 28 -23 38 -32 11 -10 22 -18 25 -18 6 0 96 -72
124 -100 22 -21 92 -110 87 -110 -2 0 11 -30 29 -67 18 -37 31 -69 29 -71 -1
-2 -27 12 -57 31 -54 35 -241 132 -246 129 -1 -2 -15 4 -30 11 -50 26 -181 67
-277 86 -110 23 -157 29 -294 36 -57 3 -107 8 -112 11 -5 3 -9 2 -9 -3 0 -4
-37 -8 -83 -9 -99 -1 -171 -9 -310 -34 -68 -12 -110 -36 -46 -26 55 8 148 10
155 3 4 -3 14 -3 23 1 9 5 25 7 36 6 11 -1 56 -5 100 -9 112 -11 130 -13 130
-15 0 -2 14 -4 30 -5 17 -2 32 -4 35 -5 3 -1 10 -3 15 -4 6 -1 37 -8 70 -16
33 -7 63 -13 68 -12 4 1 7 -3 7 -9 0 -5 3 -8 8 -6 6 4 51 -9 157 -47 11 -4 28
-12 37 -17 10 -5 25 -9 33 -9 8 0 15 -5 15 -12 0 -6 2 -9 5 -6 9 8 149 -66
240 -127 116 -78 180 -134 286 -251 44 -49 152 -194 144 -194 -4 0 2 -12 13
-27 37 -55 81 -167 103 -261 6 -26 13 -56 15 -67 10 -40 12 -241 3 -295 -11
-71 -17 -105 -19 -105 -1 0 -3 -11 -6 -25 -6 -39 -48 -155 -56 -158 -5 -2 -8
-9 -8 -16 0 -14 -69 -148 -80 -156 -4 -3 -10 -15 -14 -27 -4 -13 -11 -23 -16
-23 -5 0 -16 -12 -24 -27 -9 -16 -33 -48 -55 -72 l-40 -44 -6 26 c-4 14 -4 32
0 39 4 7 -4 0 -16 -15 -34 -40 -149 -157 -187 -190 -45 -38 -189 -140 -232
-163 -19 -10 -37 -21 -40 -24 -14 -15 -295 -143 -325 -149 -5 -1 -46 -13 -90
-27 -82 -27 -169 -49 -227 -59 -18 -3 -40 -8 -48 -10 -8 -3 -33 -7 -55 -10
-22 -3 -51 -7 -65 -10 -130 -27 -524 -27 -700 0 -127 20 -280 56 -280 66 0 4
20 19 44 33 25 15 47 30 50 35 7 10 -106 -49 -114 -59 -6 -9 -100 18 -100 28
0 4 25 17 54 30 57 25 211 121 260 163 57 48 172 165 211 214 22 28 43 52 47
53 5 2 8 8 8 13 0 6 18 34 40 64 22 30 40 57 40 61 0 3 8 18 19 32 10 15 41
70 68 122 40 78 50 105 51 150 0 30 10 98 22 150 50 219 57 304 33 397 -9 32
-16 99 -18 148 -4 144 -27 242 -92 384 -74 164 -234 358 -368 445 -33 22 -62
42 -65 45 -3 3 -18 13 -35 21 -16 8 -32 18 -35 21 -9 10 -174 77 -230 92 -177
49 -434 56 -605 17 -22 -5 -40 -9 -40 -9 0 0 -12 -2 -27 -6 -16 -4 -28 -11
-28 -15 0 -5 12 -6 28 -3 55 10 256 3 322 -13 14 -3 32 -7 40 -8 14 -3 94 -24
115 -30 6 -2 13 -4 17 -5 18 -4 166 -70 199 -89 20 -11 47 -26 60 -34 57 -31
189 -141 252 -208 70 -73 207 -270 207 -296 0 -8 3 -14 8 -14 4 0 17 -26 28
-57 12 -32 25 -67 29 -78 5 -11 10 -29 12 -40 2 -11 7 -31 12 -45 28 -74 41
-280 27 -410 -18 -178 -82 -361 -182 -522 -30 -50 -46 -57 -78 -33 -10 8 -22
12 -26 10 -4 -3 -13 2 -20 10 -7 8 -16 15 -21 15 -11 0 -121 71 -131 85 -4 5
-9 7 -11 5 -3 -3 12 -43 32 -89 34 -80 38 -85 79 -99 23 -7 42 -18 42 -23 0
-4 -48 -57 -107 -117 -124 -124 -254 -215 -413 -290 -152 -72 -149 -71 -228
-15 -37 26 -98 79 -137 118 -40 40 -77 68 -87 67 -27 -5 -189 165 -222 232
-15 33 -29 65 -30 72 -1 8 -5 17 -9 20 -4 4 -7 13 -7 21 0 18 -62 165 -67 159
-2 -2 2 -28 10 -57 16 -63 13 -79 -13 -72 -25 7 -82 92 -130 196 -30 66 -120
286 -126 307 0 3 -4 14 -9 25 -70 180 -72 187 -61 223 5 19 26 51 44 71 48 50
59 76 66 146 2 18 -34 74 -71 113 -13 14 -17 29 -13 47 56 246 117 411 174
468 13 13 26 30 29 38 6 13 4 -15 -7 -101 l-4 -35 13 30 c41 95 87 180 125
236 31 45 133 184 139 189 3 3 24 28 46 55 21 28 42 52 45 55 3 3 35 41 70 85
35 44 67 82 70 85 3 3 21 26 40 53 32 44 40 51 66 48 11 -1 31 16 80 70 63 70
242 219 263 219 6 0 11 4 11 8 0 16 326 210 343 204 4 -1 7 2 7 8 0 6 4 10 10
10 5 0 42 15 82 34 116 54 258 109 433 169 l70 24 67 -28 c37 -15 102 -45 145
-66z m1820 -3005 c-3 -8 -6 -5 -6 6 -1 11 2 17 5 13 3 -3 4 -12 1 -19z m-3193
-890 c39 -17 85 -37 103 -44 17 -8 36 -14 42 -14 6 0 11 -4 11 -8 0 -5 -28
-16 -62 -26 -35 -10 -85 -25 -113 -33 -40 -12 -56 -12 -80 -3 -29 11 -29 12
-10 23 11 6 24 12 29 12 5 0 11 6 14 13 3 9 -2 10 -25 1 -52 -20 -78 -17 -151
17 -41 19 -78 34 -83 34 -14 0 -11 20 4 21 6 0 21 2 32 4 11 2 40 7 65 10 25
3 61 9 80 14 60 12 70 11 144 -21z m284 -109 c23 -7 39 -16 34 -21 -12 -12
-165 -84 -177 -83 -25 2 -135 40 -135 47 0 4 19 12 43 18 23 6 49 14 57 17 8
3 23 8 33 10 10 1 30 10 45 18 15 8 34 12 42 10 8 -2 34 -9 58 -16z m-478 -44
c22 -13 23 -14 5 -15 -11 -1 -29 -3 -40 -6 -40 -8 -145 -12 -149 -5 -3 4 10 8
27 9 18 1 52 9 77 17 56 17 50 17 80 0z"/>
<path d="M6750 5246 c-21 -55 -21 -101 0 -144 24 -49 29 -52 28 -14 -1 31 7
62 30 111 15 32 15 34 -9 52 -31 24 -38 24 -49 -5z"/>
<path d="M6593 4537 c-42 -110 -56 -157 -49 -164 3 -4 6 1 6 10 0 9 9 22 20
29 11 7 20 18 20 25 0 7 4 13 9 13 21 0 51 153 32 164 -4 3 -21 -32 -38 -77z"/>
<path d="M1206 6710 c-25 -50 -46 -97 -46 -104 0 -6 -5 -17 -11 -23 -9 -9 -49
-107 -49 -120 0 -2 5 -3 12 -3 6 0 9 3 5 6 -6 6 24 74 103 237 23 48 40 90 38
93 -3 2 -26 -36 -52 -86z"/>
<path d="M1383 6635 c-17 -36 -28 -65 -25 -65 9 1 73 130 64 130 -4 0 -21 -29
-39 -65z"/>
<path d="M1086 6434 c-8 -22 -8 -24 6 -24 6 0 8 3 5 7 -4 3 -2 12 4 20 7 8 8
13 1 13 -5 0 -13 -7 -16 -16z"/>
<path d="M1063 6360 c-5 -22 -7 -37 -2 -35 9 6 23 64 17 70 -2 3 -9 -13 -15
-35z"/>
<path d="M1043 6288 c-2 -18 0 -20 7 -8 12 18 13 30 2 30 -4 0 -9 -10 -9 -22z"/>
<path d="M1025 6209 c-4 -6 -5 -12 -2 -15 2 -3 7 2 10 11 7 17 1 20 -8 4z"/>
<path d="M885 5240 c-3 -5 -1 -10 4 -10 6 0 11 5 11 10 0 6 -2 10 -4 10 -3 0
-8 -4 -11 -10z"/>
<path d="M2348 6813 c6 -2 18 -2 25 0 6 3 1 5 -13 5 -14 0 -19 -2 -12 -5z"/>
<path d="M3998 6753 c7 -3 16 -2 19 1 4 3 -2 6 -13 5 -11 0 -14 -3 -6 -6z"/>
<path d="M3204 6317 c-39 -42 -84 -108 -84 -124 0 -7 9 -13 20 -13 11 0 20 4
20 8 0 5 22 20 50 33 27 13 52 32 55 41 30 86 -3 116 -61 55z"/>
<path d="M2961 5728 c-21 -76 -23 -91 -25 -190 l-3 -98 26 7 c14 3 27 7 29 8
2 2 17 -1 34 -6 l30 -8 -18 22 c-11 12 -25 26 -31 30 -7 4 -13 14 -13 22 0 7
-5 15 -12 17 -16 6 -19 94 -7 172 12 70 6 83 -10 24z"/>
<path d="M3089 5699 c-1 -13 -3 -55 -5 -94 -4 -107 -8 -136 -16 -141 -18 -11
-7 -24 11 -14 31 16 38 72 26 218 -4 49 -14 68 -16 31z"/>
<path d="M2730 4010 c-9 -6 -10 -10 -3 -10 6 0 15 5 18 10 8 12 4 12 -15 0z"/>
<path d="M7230 8498 c36 -33 80 -61 74 -46 -3 7 -26 26 -52 41 -41 25 -44 25
-22 5z"/>
<path d="M7018 8473 c6 -2 10 -9 6 -14 -3 -5 -1 -9 5 -9 5 0 17 -7 25 -16 9
-8 16 -11 16 -6 0 12 56 5 83 -10 10 -5 21 -7 24 -5 7 7 -29 25 -95 48 -48 17
-99 26 -64 12z"/>
<path d="M181 6789 c-13 -33 -21 -62 -18 -65 6 -7 50 103 45 116 -1 5 -14 -17
-27 -51z"/>
<path d="M315 6720 c-3 -5 -2 -10 4 -10 5 0 13 5 16 10 3 6 2 10 -4 10 -5 0
-13 -4 -16 -10z"/>
<path d="M140 6691 c-6 -12 -7 -21 -1 -21 10 0 24 30 17 37 -2 3 -9 -5 -16
-16z"/>
<path d="M303 6685 c-3 -9 -3 -18 -1 -21 3 -3 8 4 11 16 6 23 -1 27 -10 5z"/>
<path d="M124 6644 c-4 -10 -9 -22 -11 -26 -2 -5 0 -8 5 -8 10 0 24 41 17 48
-3 3 -8 -4 -11 -14z"/>
<path d="M110 6598 c-2 -5 -3 -11 -4 -15 -1 -5 -4 -12 -7 -18 -4 -5 -10 -26
-13 -45 -5 -29 -3 -27 14 15 11 28 18 55 16 60 -3 6 -5 7 -6 3z"/>
<path d="M60 6440 c0 -5 5 -10 11 -10 5 0 7 5 4 10 -3 6 -8 10 -11 10 -2 0 -4
-4 -4 -10z"/>
<path d="M9641 5102 c-6 -15 -14 -40 -17 -56 -3 -16 -6 -31 -6 -35 -3 -11 45
-106 48 -96 27 101 38 129 62 156 15 18 22 30 16 26 -7 -4 -23 2 -37 13 -34
27 -52 25 -66 -8z"/>
<path d="M9440 4364 c-25 -54 -45 -101 -46 -104 0 -3 -4 -13 -7 -22 -4 -10
-10 -26 -13 -35 -7 -24 82 70 100 104 16 33 25 98 17 131 -5 20 -14 6 -51 -74z"/>
<path d="M5155 4054 c-27 -13 -78 -34 -114 -46 -65 -22 -192 -97 -141 -83 49
13 297 132 306 147 7 11 6 11 -51 -18z"/>
<path d="M5110 3817 c-52 -23 -97 -44 -100 -47 -3 -3 -9 -6 -15 -7 -5 -1 -60
-22 -122 -46 -62 -25 -115 -42 -118 -39 -3 3 -5 0 -5 -6 0 -7 -6 -12 -12 -12
-7 0 -35 -11 -63 -25 -51 -25 -45 -27 40 -10 79 16 322 91 340 105 6 5 12 8
15 7 3 0 27 6 54 14 42 12 51 20 72 62 14 26 21 47 17 46 -5 0 -51 -19 -103
-42z"/>
<path d="M8571 2190 c-60 -22 -73 -30 -119 -78 -46 -48 -92 -153 -80 -184 4
-10 47 -14 189 -16 101 -2 235 -5 297 -7 l114 -3 -6 44 c-14 116 -101 217
-216 251 -45 14 -129 10 -179 -7z"/>
<path d="M8091 1934 c-40 -50 -29 -85 52 -169 l72 -76 -3 -78 -3 -77 -85 1
c-88 2 -143 -17 -145 -50 -1 -8 -2 -21 -3 -27 -4 -25 15 -64 37 -77 12 -8 54
-16 97 -17 41 -1 80 -3 86 -3 6 -1 10 -18 9 -39 -1 -22 5 -68 14 -103 l16 -64
-92 -90 c-86 -85 -99 -105 -94 -151 1 -6 13 -23 27 -37 25 -25 39 -28 96 -18
3 0 44 37 89 80 46 44 86 76 89 72 8 -13 96 -61 122 -67 12 -3 43 -8 68 -11
l45 -5 3 243 c4 327 8 414 16 428 4 6 28 11 54 11 61 0 69 -13 65 -115 -1 -44
-4 -191 -7 -327 l-5 -247 39 4 c59 6 110 22 158 50 51 29 55 27 122 -50 83
-96 134 -116 185 -72 30 25 38 72 18 103 -8 12 -48 57 -91 100 l-77 79 17 52
c10 29 19 73 21 97 1 25 6 48 10 52 3 4 44 6 89 6 100 -1 127 13 135 74 4 32
1 44 -21 67 -15 16 -36 27 -53 28 -15 0 -55 1 -88 2 l-60 2 -3 76 -3 77 66 63
c85 82 98 105 83 152 -17 57 -83 75 -132 36 -14 -11 -55 -49 -91 -83 l-65 -63
-128 4 c-70 2 -207 5 -305 7 l-178 3 -83 87 c-78 80 -87 86 -124 86 -32 0 -45
-6 -61 -26z"/>
</g>
</svg>
